<svg width="192" height="192" xmlns="http://www.w3.org/2000/svg" clip-rule="evenodd">

 <g>
  <title>Layer 1</title>
  <path id="svg_1" d="m-0.5,-0.5l192,0l0,192l-192,0l0,-192z" fill="#ecf3f5"/>
  <path id="svg_2" d="m81.5,28.5q6.395,0.36 4,6a28.8,28.8 0 0 1 -10,1q-1.369,-1.858 -0.5,-4q2.805,-2.579 6.5,-3" fill="#e9edf1"/>
  <path id="svg_3" d="m185.5,24.5q2.153,3.146 3.5,7q0.75,10.488 0.5,21q-1.152,-1.144 -1.5,-3q-8.09,5.377 -17,1a393,393 0 0 1 -32,0q-2.767,1.816 -2.5,4a10.9,10.9 0 0 1 -4.5,-5q-0.598,0.342 -0.5,1a94,94 0 0 1 -7,-14q3.335,-3.198 7.5,-6q6.034,-0.378 12.5,1a4.46,4.46 0 0 0 1.5,-2q1.275,1.386 3,0q16.296,2.308 32.5,0.5q3.643,-1.527 4,-5.5" fill="#216baa"/>
  <path id="svg_4" d="m74.5,35.5q-0.128,1.495 1,2.5l-4,1a61,61 0 0 0 11,0.5q-8.228,1.24 -17,1.5q-5.191,2.465 -9,6.5q-1.911,-1.035 0,-2.5q-2.704,-0.955 -4,-3.5l-2,1q-9.3,-1.96 -18.5,-4q-4.465,2.106 -9,1a7.25,7.25 0 0 1 -2.5,2q-5.37,-1.224 -10.5,-1l-1,2a13.24,13.24 0 0 1 -5,-3a217,217 0 0 1 -2.5,6q-0.249,-6.52 0.5,-13q0.348,-1.857 1.5,-3q0.33,3.895 1.5,0l1,2q5.565,-3.713 12,-2q9.33,-3.414 18.5,0q3.314,-0.91 6.5,-2q6.327,3.267 13.5,4a7.25,7.25 0 0 1 -2,2.5q7.54,-1.885 13.5,3.5q1.876,-1.61 4,0q1.516,-0.834 2.5,-2" fill="#206aa8"/>
  <path id="svg_5" d="m177.5,15.5q0,-1 1,-1q4.973,3.937 7,10q-0.357,3.973 -4,5.5q-16.204,1.808 -32.5,-0.5q-1.725,1.386 -3,0a4.46,4.46 0 0 1 -1.5,2q-6.466,-1.378 -12.5,-1q-4.165,2.802 -7.5,6q-1,0 -1,-1q0.627,-1.083 2,-1.5q-1.056,-2.358 -4,-5l3,-1l-1,-1l6,-1.5q7.832,1.768 16.5,0l2.5,0.5q-1.794,0.981 0,1.5q4.917,-1.508 9,-4q4.539,-0.053 9,3l1,-2l2,2q2.313,-1.87 4.5,0q0.733,-3.156 3.5,-1q3.792,-1.003 0,-2.5l4,-2a43,43 0 0 1 -4,-5.5" fill="#1f64a7"/>
  <path id="svg_6" d="m8.5,19.5a2.43,2.43 0 0 1 2,0.5q-1.425,1.076 -0.5,2.5a38.7,38.7 0 0 1 8,0a6.54,6.54 0 0 0 3,-3q3.557,0.603 7.5,3q4.337,-0.759 8,-3q2.356,2.873 6,3q1.083,0.626 1.5,2q9.813,0.541 19,0q3.468,0.682 6,3a15.1,15.1 0 0 0 6,-3q1.67,1.89 0.5,3.5q3.207,-0.838 6,0.5q-3.695,0.421 -6.5,3q-0.869,2.142 0.5,4l-1,0q-0.984,1.166 -2.5,2q-2.124,-1.61 -4,0q-5.96,-5.385 -13.5,-3.5a7.25,7.25 0 0 0 2,-2.5q-7.173,-0.733 -13.5,-4q-3.186,1.09 -6.5,2q-9.17,-3.414 -18.5,0q-6.435,-1.713 -12,2l-1,-2q-1.17,3.895 -1.5,0q0.94,-5.88 5,-10" fill="#1e63a7"/>
  <path id="svg_7" d="m177.5,15.5a43,43 0 0 0 4,5.5l-4,2q3.792,1.497 0,2.5q-2.767,-2.156 -3.5,1q-2.187,-1.87 -4.5,0l-2,-2l-1,2q-4.461,-3.053 -9,-3q-4.083,2.492 -9,4q-1.794,-0.519 0,-1.5l-2.5,-0.5q-8.668,1.768 -16.5,0l-6,1.5l1,1l-3,1q2.944,2.642 4,5q-1.373,0.417 -2,1.5q-7.688,-8.336 -19,-6.5q-2.35,0.912 -4,2.5a182,182 0 0 1 -13,7.5q-2.45,0.74 -5,0.5a61,61 0 0 1 -11,-0.5l4,-1q-1.128,-1.005 -1,-2.5l1,0q5.113,0.375 10,-1q2.395,-5.64 -4,-6q-2.793,-1.338 -6,-0.5q1.17,-1.61 -0.5,-3.5a15.1,15.1 0 0 1 -6,3q-2.532,-2.318 -6,-3q-9.187,0.541 -19,0q-0.417,-1.374 -1.5,-2a61,61 0 0 1 5.5,-2q2.428,0.874 5.5,0q1.948,0.885 2.5,3a18.6,18.6 0 0 1 8.5,-3q6.06,0.8 13,1l0,3q3.535,0.245 7,-0.5q-1.794,-0.981 0,-1.5a4.45,4.45 0 0 1 1.5,2a7.25,7.25 0 0 1 2.5,-2q5.796,3.717 11.5,0q3.04,1.848 4,-1q1.298,4.054 5.5,4q4.015,-2.13 8.5,-4l3,2a483,483 0 0 1 9,-3q2,2 4,0q3.273,3.384 7,0q5.539,0.58 11,1a22.2,22.2 0 0 0 7.5,-2q3.512,0.243 5.5,3a15.3,15.3 0 0 1 4.5,-1.5q0.722,-1.512 0.5,-3.5q2.316,4.146 3.5,-0.5q2.246,-1.842 4,-1.5" fill="#1f63a1"/>
  <path id="svg_8" d="m38.5,1.5q-0.129,1.495 1,2.5l13,1a9.5,9.5 0 0 1 2.5,1.5q6.883,-0.668 14.5,-2q-1.824,-0.894 -4,-0.5q2.107,-1.905 5,-1.5l0,3q4.895,0.957 9.5,0l2.5,3q7.282,-1.431 14,0q1.72,-0.476 2.5,-2q3,4 6,0q4.184,-0.155 9,1q2.718,0.01 4.5,-2a148,148 0 0 0 29.5,0a9.5,9.5 0 0 1 2.5,-1.5l-17,-1a197,197 0 0 0 20,-1.5q15.316,1.405 25,13q-1,0 -1,1q-1.754,-0.342 -4,1.5q-1.184,4.646 -3.5,0.5q0.222,1.988 -0.5,3.5a15.3,15.3 0 0 0 -4.5,1.5q-1.988,-2.757 -5.5,-3a22.2,22.2 0 0 1 -7.5,2q-5.461,-0.42 -11,-1q-3.727,3.384 -7,0q-2,2 -4,0a483,483 0 0 0 -9,3l-3,-2a102,102 0 0 0 -8.5,4q-4.202,0.054 -5.5,-4q-0.96,2.848 -4,1q-5.704,3.717 -11.5,0a7.25,7.25 0 0 0 -2.5,2a4.45,4.45 0 0 0 -1.5,-2q-1.794,0.519 0,1.5q-3.465,0.745 -7,0.5l0,-3q-6.94,-0.2 -13,-1a18.6,18.6 0 0 0 -8.5,3q-0.552,-2.115 -2.5,-3q-3.072,0.874 -5.5,0a61,61 0 0 0 -5.5,2q-3.644,-0.127 -6,-3q-3.663,2.241 -8,3q-3.943,-2.397 -7.5,-3a6.54,6.54 0 0 1 -3,3a38.7,38.7 0 0 0 -8,0q-0.925,-1.424 0.5,-2.5a2.43,2.43 0 0 0 -2,-0.5q8.775,-13.005 24,-17.5a18.4,18.4 0 0 1 6,-0.5" fill="#195da2"/>
  <path id="svg_9" d="m38.5,1.5l115,0a197,197 0 0 1 -20,1.5l17,1a9.5,9.5 0 0 0 -2.5,1.5a148,148 0 0 1 -29.5,0q-1.782,2.01 -4.5,2q-4.816,-1.155 -9,-1q-3,4 -6,0q-0.78,1.524 -2.5,2q-6.718,-1.431 -14,0l-2.5,-3q-4.605,0.957 -9.5,0l0,-3q-2.893,-0.405 -5,1.5q2.176,-0.394 4,0.5q-7.617,1.332 -14.5,2a9.5,9.5 0 0 0 -2.5,-1.5l-13,-1q-1.129,-1.006 -1,-2.5" fill="#0f549f"/>
  <path id="svg_10" d="m123.5,35.5q0,1 1,1a94,94 0 0 0 7,14q4.528,7.797 13,11.5a38.5,38.5 0 0 1 5,5.5q1.844,2.695 2,6q1.16,12.672 -9,20q-1.739,-2.815 -5,-1.5q1.794,0.981 0,1.5q-2.017,-1.27 -3,-3.5q2,-3.907 6,-6l-1,-1a12.9,12.9 0 0 1 5,-0.5q-0.175,-2.976 2,-5q2.066,5.648 3,-1q-0.424,-5.933 -4,-10.5a26.7,26.7 0 0 1 -6.5,-1.5q-0.539,4.567 -2,1a15.8,15.8 0 0 1 -5,6q-1.137,-3.405 0.5,-6.5q-0.983,-2.23 -3,-3.5q1.303,3.747 0,8q0.32,-2.466 -1,-4.5a98.4,98.4 0 0 0 -14,-0.5l0,3q6.083,-0.485 12,1q-2.035,2.529 -4,5a85.7,85.7 0 0 0 -11,11q0.5,1.5 2,2q2.529,-2.035 5,-4q1.307,3.095 3.5,6l1,-1a23.9,23.9 0 0 1 2.5,9a65,65 0 0 0 -6.5,-8q-5.775,5.56 -8.5,13q-2.69,2.889 -3,7q-1.426,2.128 -1,5q-1.185,-1.663 -1.5,-4q-1.006,-1.128 -2.5,-1l0,-1q1.257,-0.513 1,-2a49.7,49.7 0 0 0 6,-10q3.418,-3.335 2.5,-8q-5.574,-3.318 -6.5,4l-1,0q0,-1 -1,-1q1.965,-4.46 6,-7a119.6,119.6 0 0 0 13,-13a21.1,21.1 0 0 0 -9,-1l0,-13q3.138,0.091 4.5,3q2.668,-4.417 -3,-5q-4.36,1.325 -3.5,6l-10,0l0,-4q2.926,-0.41 4.5,2q1.026,-1.926 -0.5,-3.5q-3.51,-1.122 -6,1.5a56,56 0 0 1 -1,-4q-2.914,1.293 -7,1.5q-0.175,-1.902 -1,-4q1.424,-0.925 2.5,0.5q2.51,-2.777 3.5,-5q1.902,1.392 4,0.5q1.132,-3.2 4,-5q-2,-2.76 0.5,-1.5q1.67,-1.89 0.5,-3.5a6.54,6.54 0 0 1 3,-3q-0.912,-1.305 -2.5,-1.5a28.6,28.6 0 0 1 -5.5,0q1.65,-1.588 4,-2.5q11.312,-1.836 19,6.5" fill="#f0f2f3"/>
  <path id="svg_11" d="m152.5,38.5q5.115,0.423 10,2a54,54 0 0 1 5.5,-2a184,184 0 0 1 17.5,4q1.948,-0.885 2.5,-3q1.285,4.575 -2,8q-1.165,-2.573 -4,-3a151,151 0 0 0 -10.5,-1.5l1,-1q-3.94,-3.025 -7.5,0.5q-3.445,-0.059 -7,-1q-1.353,4.956 -4,1q-4.464,1.53 -8,0q-6.12,1.2 -12.5,1.5q-4.049,1.815 0,-2a205,205 0 0 1 14.5,-2.5q2.873,2.124 4.5,-1" fill="#1f70a8"/>
  <path id="svg_12" d="m56.5,47.5q-5.3,8.121 -4,18q-0.897,-5.88 -2,-10a20.7,20.7 0 0 0 -4,-3.5a89,89 0 0 1 -12,-1.5q-10.535,0.17 -21.5,2q-3.742,-0.831 -7,0q-1.892,-0.39 -3,-2q-0.348,1.856 -1.5,3l0,-8a217,217 0 0 0 2.5,-6a13.24,13.24 0 0 0 5,3l1,-2q5.13,-0.224 10.5,1a7.25,7.25 0 0 0 2.5,-2q4.535,1.106 9,-1q9.2,2.04 18.5,4l2,-1q1.296,2.545 4,3.5q-1.911,1.465 0,2.5" fill="#206fad"/>
  <path id="svg_13" d="m189.5,52.5l0,9q-1.185,-1.662 -1.5,-4q-1.18,4.597 -6,4q-4.796,-2.363 -9.5,-2a4.45,4.45 0 0 0 -2,1.5l5,1a40.5,40.5 0 0 1 -11.5,4.5q-4.098,-0.3 -8.5,0l-3,-3q6.298,-1.195 13,-2.5l-3,-1.5a40,40 0 0 1 -11,2q0.361,3.597 -2,6a38.5,38.5 0 0 0 -5,-5.5q-8.472,-3.703 -13,-11.5q-0.098,-0.658 0.5,-1a10.9,10.9 0 0 0 4.5,5q-0.267,-2.184 2.5,-4q16.195,0.653 32,0q8.91,4.377 17,-1q0.348,1.856 1.5,3" fill="#2676af"/>
  <path id="svg_14" d="m50.5,55.5a12.15,12.15 0 0 0 -0.5,7a345,345 0 0 1 -8.5,-5q-5.468,-0.3 -10.5,1q-3.087,-0.915 -2.5,-3q-5.097,2.139 -10.5,6a136,136 0 0 0 -15.5,-1q0.442,3.352 -1,6l0,-13q1.152,-1.144 1.5,-3q1.108,1.61 3,2q3.258,-0.831 7,0q10.965,-1.83 21.5,-2a89,89 0 0 0 12,1.5a20.7,20.7 0 0 1 4,3.5" fill="#2475ae"/>
  <path id="svg_15" d="m113.5,65.5l-2,2q-5.744,-0.853 -10,2l0,1l-2,-2l0,-12q2.49,-2.622 6,-1.5q1.526,1.574 0.5,3.5q-1.574,-2.41 -4.5,-2l0,4l10,0q-0.86,-4.675 3.5,-6q5.668,0.583 3,5q-1.362,-2.909 -4.5,-3l0,9z" fill="#1c5292"/>
  <path id="svg_16" d="m52.5,65.5q-0.444,7.338 -5,13q-2.847,-0.885 -6,-0.5a9.5,9.5 0 0 1 -1.5,-2.5q-2.014,1.07 -4,-1a20.8,20.8 0 0 0 -6.5,3a12.8,12.8 0 0 0 -5.5,-2q-4.215,1.155 -8.5,2q-5.567,-0.7 -12,-1q0.959,-3.39 3.5,-6l1,1a10.94,10.94 0 0 1 4.5,-3q4.632,-0.222 9.5,1q3.78,-1.06 7.5,-2.5q-1.144,-1.416 -3,-1.5q-4.78,1.431 -10,0a35.15,35.15 0 0 1 -14,2q0.46,4.328 -1,8l0,-9q1.442,-2.648 1,-6q7.793,0.057 15.5,1q5.403,-3.861 10.5,-6q-0.587,2.085 2.5,3q5.032,-1.3 10.5,-1a345,345 0 0 0 8.5,5a12.15,12.15 0 0 1 0.5,-7q1.103,4.12 2,10" fill="#2b80b2"/>
  <path id="svg_17" d="m189.5,61.5l0,15q-1.083,-0.627 -1.5,-2q-6.102,4.238 -11.5,-1q-6.675,2.523 -13,-2a92,92 0 0 0 -7.5,6l-1,-2q-1.566,1.684 -2,4q-0.286,-3.312 -1.5,-6q-0.156,-3.305 -2,-6q2.361,-2.403 2,-6a40,40 0 0 0 11,-2l3,1.5q-6.702,1.305 -13,2.5l3,3q4.402,-0.3 8.5,0a40.5,40.5 0 0 0 11.5,-4.5l-5,-1a4.45,4.45 0 0 1 2,-1.5q4.704,-0.363 9.5,2q4.82,0.597 6,-4q0.315,2.338 1.5,4" fill="#2a80b2"/>
  <path id="svg_18" d="m100.5,31.5q2.632,0.264 5.5,0q1.588,0.195 2.5,1.5a6.54,6.54 0 0 0 -3,3q1.17,1.61 -0.5,3.5q-2.5,-1.26 -0.5,1.5q-2.868,1.8 -4,5q-2.098,0.892 -4,-0.5q-0.99,2.223 -3.5,5q-1.076,-1.425 -2.5,-0.5q0.825,2.098 1,4q4.086,-0.207 7,-1.5a56,56 0 0 0 1,4l0,13l-17,0l0,3q-4.695,-0.888 -7,3a55436,55436 0 0 1 -18,19q-1.487,0.257 -2,-1a577,577 0 0 1 20,-20.5a44.4,44.4 0 0 1 -11,-0.5l17,-2q-12,-2 -24,0l5,2q-1.238,1.329 -3,1l0,3q3.535,-0.245 7,0.5a437,437 0 0 0 -13.5,14.5q-1.147,2.35 0.5,4q0.165,0.925 1,1.5l23,0.5q12.045,-0.004 23,-2q1.856,-2.198 3,-5q1,0 1,1a54.3,54.3 0 0 0 -4,9a66,66 0 0 0 -7,11.5q1.062,4.084 5,3a62,62 0 0 1 4,-6.5q1.494,-0.128 2.5,1q0.315,2.337 1.5,4q0.653,3.986 3,7q7.344,8.113 17,2.5q3.446,-3.149 5,-7.5q0.46,-4.328 -1,-8q-0.444,-2.855 -2,-5l-3,-6a23.9,23.9 0 0 0 -2.5,-9l-1,1q-2.193,-2.905 -3.5,-6l6,-7q3.585,-2.085 5,-6q1.303,-4.253 0,-8q2.017,1.27 3,3.5q-1.637,3.095 -0.5,6.5a15.8,15.8 0 0 0 5,-6q1.461,3.567 2,-1a26.7,26.7 0 0 0 6.5,1.5q3.576,4.567 4,10.5q-0.934,6.648 -3,1q-2.175,2.024 -2,5a12.9,12.9 0 0 0 -5,0.5l1,1q-4,2.093 -6,6q0.983,2.23 3,3.5q1.794,-0.519 0,-1.5q3.261,-1.315 5,1.5q-6.086,6.765 -5,16q0.227,16.01 -15,20.5l-23,1q-28.73,19.51 -39.5,-13.5q-4.733,-6.005 -11.5,-9a46,46 0 0 0 -5.5,-6q-0.85,-3.334 -2.5,-6q-1.194,-10.932 7,-18q4.556,-5.662 5,-13q-1.3,-9.879 4,-18q3.809,-4.035 9,-6.5q8.772,-0.26 17,-1.5q2.55,0.24 5,-0.5a182,182 0 0 0 13,-7.5" fill="#f4f6f7"/>
  <path id="svg_19" d="m99.5,69.5a9.86,9.86 0 0 0 1,6q6,-4 12,0a9.86,9.86 0 0 0 1,-6a21.1,21.1 0 0 1 9,1a119.6,119.6 0 0 1 -13,13l-2,-1q-2.872,0.426 -5,-1l0,-2q0.166,-0.925 1,-1.5q-7.961,-1.245 -16,-1.5q-5.31,4.762 -12,2l0,-3q2.305,-3.888 7,-3l0,-3l17,0z" fill="#52bed9"/>
  <path id="svg_20" d="m55.5,93.5l-2,2q-1.647,-1.65 -0.5,-4a437,437 0 0 1 13.5,-14.5a25,25 0 0 0 -7,-0.5l0,-3q1.762,0.329 3,-1l-5,-2q12,-2 24,0l-17,2q5.44,0.933 11,0.5a577,577 0 0 0 -20,20.5" fill="#2e68a2"/>
  <path id="svg_21" d="m111.5,67.5l0,2l-10,0q4.256,-2.853 10,-2" fill="#c1dbe8"/>
  <path id="svg_22" d="m129.5,69.5q-1.415,3.915 -5,6q-1.5,-0.5 -2,-2q1.965,-2.471 4,-5a36.9,36.9 0 0 0 -12,-1l0,-3q7.018,-0.25 14,0.5q1.32,2.034 1,4.5" fill="#205b9a"/>
  <path id="svg_23" d="m111.5,65.5q-5,2 -10,0q5,-2 10,0" fill="#6f98bf"/>
  <path id="svg_24" d="m78.5,64.5l20,0l0,3a124,124 0 0 0 -21,1l-2,-1q1.905,-1.182 3,-3" fill="#1d5696"/>
  <path id="svg_25" d="m111.5,65.5q-5,-2 -10,0l0,-3l10,0l0,3z" fill="#ccdae5"/>
  <path id="svg_26" d="m189.5,76.5l0,13q-1.231,-4.712 -1.5,-10a6.8,6.8 0 0 1 -1.5,3a205,205 0 0 1 -19,-3q-3.82,-0.086 -7,2q-2.341,-1.27 -4.5,1q-1.45,8.452 -9.5,11.5q-6.328,5.358 -7,12.5a5.73,5.73 0 0 0 -1,3l-1,0q-1.086,-9.235 5,-16q10.16,-7.328 9,-20q1.214,2.688 1.5,6q0.434,-2.316 2,-4l1,2a92,92 0 0 1 7.5,-6q6.325,4.523 13,2q5.398,5.238 11.5,1q0.417,1.373 1.5,2" fill="#3187b2"/>
  <path id="svg_27" d="m113.5,65.5l0,4a9.86,9.86 0 0 1 -1,6q-6,-4 -12,0a9.86,9.86 0 0 1 -1,-6l0,-1l2,2q2.196,0.99 5,1q3.21,-0.084 5,-2l0,-2l2,-2z" fill="#2373a7"/>
  <path id="svg_28" d="m101.5,69.5l10,0q-1.79,1.916 -5,2q-2.804,-0.01 -5,-1l0,-1z" fill="#45badb"/>
  <path id="svg_29" d="m47.5,78.5q-8.194,7.068 -7,18a2.43,2.43 0 0 1 -0.5,2q-0.625,-1.884 -2.5,-2a39,39 0 0 0 -2,-4.5q-13.96,-3.165 -26.5,1.5q-3.648,-1.425 -7.5,0l0,-18q1.46,-3.672 1,-8q7.22,0.42 14,-2q5.22,1.431 10,0q1.856,0.084 3,1.5q-3.72,1.44 -7.5,2.5q-4.868,-1.222 -9.5,-1a10.94,10.94 0 0 0 -4.5,3l-1,-1q-2.541,2.61 -3.5,6q6.433,0.3 12,1q4.285,-0.845 8.5,-2q2.976,0.362 5.5,2a20.8,20.8 0 0 1 6.5,-3q1.986,2.07 4,1q0.561,1.374 1.5,2.5q3.153,-0.385 6,0.5" fill="#318ab6"/>
  <path id="svg_30" d="m87.5,76.5q8.039,0.255 16,1.5q-0.834,0.575 -1,1.5q-7.905,-0.36 -15,-3" fill="#dff0f2"/>
  <path id="svg_31" d="m102.5,81.5q2.128,1.426 5,1q-1.423,0.979 -3.5,1l-10.5,-1.5q4.344,-2.547 9,-0.5" fill="#d7eef1"/>
  <path id="svg_32" d="m122.5,73.5q0.5,1.5 2,2l-6,7q-2.471,1.965 -5,4q-1.5,-0.5 -2,-2a85.7,85.7 0 0 1 11,-11" fill="#2f6ea7"/>
  <path id="svg_33" d="m109.5,95.5l-1,0l0,-2q1.911,-1.035 0,-2.5q-1.974,-0.792 -2,1.5q-1,0 -1,-1q0.926,-7.318 6.5,-4q0.918,4.665 -2.5,8" fill="#3c76ab"/>
  <path id="svg_34" d="m189.5,89.5l0,7q-2.363,4.623 -6.5,8q-4.235,-1.243 -5.5,-5.5l1,-1a21.4,21.4 0 0 1 -5,0q-5.031,-5.175 -12,-1.5q-5.118,-1.092 -11,-0.5q-5.517,6.387 -11,10.5q0.672,-7.142 7,-12.5q8.05,-3.048 9.5,-11.5q2.159,-2.27 4.5,-1q3.18,-2.086 7,-2a205,205 0 0 0 19,3a6.8,6.8 0 0 0 1.5,-3q0.269,5.288 1.5,10" fill="#3793be"/>
  <path id="svg_35" d="m108.5,87.5a7.5,7.5 0 0 1 3,2q-2.844,1.71 -3,-2" fill="#e5ebf2"/>
  <path id="svg_36" d="m37.5,96.5q0.77,3.018 0.5,6q-1.088,-2.487 -3.5,-1.5q2.41,1.574 2,4.5q-6.597,0.635 -13,1.5l2,-1q-2,-2.76 0.5,-1.5q2.637,-1.454 1.5,-3.5q3.644,-0.676 0.5,-2.5a7.26,7.26 0 0 1 -2.5,2q-2.355,-0.291 -4.5,0l-4,4l-1,-1q-3.69,1.077 -7.5,2q-3.255,-0.447 -5.5,-4q-0.417,1.373 -1.5,2l0,-10q3.852,-1.425 7.5,0q12.54,-4.665 26.5,-1.5a39,39 0 0 1 2,4.5" fill="#3996c1"/>
  <path id="svg_37" d="m108.5,93.5q-0.513,-1.257 -2,-1q0.026,-2.292 2,-1.5q1.911,1.465 0,2.5" fill="#e6edf1"/>
  <path id="svg_38" d="m75.5,75.5l0,3q6.69,2.762 12,-2q7.095,2.64 15,3l0,2q-4.656,-2.047 -9,0.5l10.5,1.5q2.077,-0.021 3.5,-1l2,1q-4.035,2.54 -6,7q-1.144,2.802 -3,5a463,463 0 0 0 -43,-1a55436,55436 0 0 0 18,-19" fill="#6fcbd7"/>
  <path id="svg_39" d="m79.5,84.5a104,104 0 0 1 20,2.5a12.9,12.9 0 0 1 -6,1.5q-8.096,-2.983 -16.5,-1l-1.5,-0.5a51,51 0 0 1 4,-2.5" fill="#e0f0f2"/>
  <path id="svg_40" d="m55.5,93.5q0.513,1.257 2,1q21.765,-0.495 43,1q-10.955,1.996 -23,2l-23,-0.5q-0.835,-0.575 -1,-1.5l2,-2z" fill="#3083ae"/>
  <path id="svg_41" d="m108.5,94.5l0,1q-1.884,0.059 -3,-1.5q1.615,-0.705 3,0.5" fill="#f7f8f8"/>
  <path id="svg_42" d="m104.5,91.5l1,0q0,1 1,1q1.487,-0.257 2,1l0,1q-1.385,-1.205 -3,-0.5q1.116,1.559 3,1.5l1,0a49.7,49.7 0 0 1 -6,10q0.876,-4.178 -3,-5a54.3,54.3 0 0 1 4,-9" fill="#5694bd"/>
  <path id="svg_43" d="m103.5,95.5q3.279,0.015 2.5,3q-2.125,-0.867 -2.5,-3" fill="#e3ecf0"/>
  <path id="svg_44" d="m189.5,96.5l0,14q-1.214,-2.688 -1.5,-6q-5.057,2.04 -9.5,5.5q-5.756,1.142 -11,-1.5q-6.155,3.175 -13,0a359,359 0 0 1 -10,1.5q-3.38,1.581 -1,4.5q-1.96,2.118 -2.5,5q-1.006,-1.128 -2.5,-1l0,-9a5.73,5.73 0 0 1 1,-3q5.483,-4.113 11,-10.5q5.882,-0.592 11,0.5q6.969,-3.675 12,1.5q2.56,0.292 5,0l-1,1q1.265,4.257 5.5,5.5q4.137,-3.377 6.5,-8" fill="#3d9dc5"/>
  <path id="svg_45" d="m125.5,96.5l3,6q0.098,0.658 -0.5,1q-5.169,-1.835 -10,-2a40,40 0 0 1 -6,2q-1.545,-0.504 -1.5,-2q2.725,-7.44 8.5,-13a65,65 0 0 1 6.5,8" fill="#216ca7"/>
  <path id="svg_46" d="m102.5,99.5q1.495,-1.82 3,0.5q-1.615,0.705 -3,-0.5" fill="#f5f8f8"/>
  <path id="svg_47" d="m100.5,100.5q3.876,0.822 3,5q0.257,1.487 -1,2q-1.095,-1.818 -3,-3a4.46,4.46 0 0 1 2,-1.5q-1.128,-1.006 -1,-2.5" fill="#acccde"/>
  <path id="svg_48" d="m110.5,101.5q-0.045,1.496 1.5,2a40,40 0 0 0 6,-2q4.831,0.165 10,2q0.598,-0.342 0.5,-1q1.556,2.145 2,5a4.93,4.93 0 0 1 -0.5,3a31,31 0 0 1 -3.5,-3q-0.595,-1.538 -2,-0.5l-7.5,7.5q-1.896,-3.16 -5.5,-3q-1.494,0.128 -2.5,-1l-1,2a8.4,8.4 0 0 1 -0.5,-4q0.31,-4.111 3,-7" fill="#3489b6"/>
  <path id="svg_49" d="m37.5,96.5q1.875,0.116 2.5,2a2.43,2.43 0 0 0 0.5,-2q1.65,2.666 2.5,6a46,46 0 0 1 5.5,6q-2.963,-0.483 -5,0q-1.495,0.128 -2.5,-1a4.93,4.93 0 0 0 -0.5,3q-2.552,0.699 -4.5,0q-1.71,2.367 -1.5,5q-4.461,3.358 -9,0.5l3,-1.5q2,-1.5 0,-3a12,12 0 0 1 -6,1q-0.708,4.973 -5.5,7a34,34 0 0 0 -7.5,-1.5q1.794,-0.981 0,-1.5a37,37 0 0 0 -4.5,2a312,312 0 0 0 -3.5,-5l0,-10q1.083,-0.627 1.5,-2q2.245,3.553 5.5,4q3.81,-0.923 7.5,-2l1,1l4,-4q2.145,-0.291 4.5,0a7.26,7.26 0 0 0 2.5,-2q3.144,1.824 -0.5,2.5q1.137,2.046 -1.5,3.5q-2.5,-1.26 -0.5,1.5l-2,1a340,340 0 0 1 13,-1.5q0.41,-2.926 -2,-4.5q2.412,-0.987 3.5,1.5q0.27,-2.982 -0.5,-6" fill="#3da0c4"/>
  <path id="svg_50" d="m100.5,100.5q-0.128,1.494 1,2.5a4.46,4.46 0 0 0 -2,1.5q1.905,1.182 3,3l0,1a62,62 0 0 0 -4,6.5q-3.938,1.084 -5,-3a66,66 0 0 1 7,-11.5" fill="#469ec0"/>
  <path id="svg_51" d="m189.5,110.5l0,16q-1.203,-2.177 -1.5,-5l-1.5,1.5q-9.154,1.338 -16.5,-2.5q-3.815,0.203 -8,2a65,65 0 0 0 -7,-2a488,488 0 0 0 -17.5,3q0.558,-3.093 1,-5q1.494,-0.128 2.5,1q0.54,-2.882 2.5,-5q-2.38,-2.919 1,-4.5a359,359 0 0 0 10,-1.5q6.845,3.175 13,0q5.244,2.642 11,1.5q4.443,-3.46 9.5,-5.5q0.286,3.312 1.5,6m-146,-2q1.978,3.352 6,4q1.329,1.238 1,3q2.975,-0.514 4,2q-5.866,-2.652 -5,4l-2,1q-8.92,0.168 -18,0a26.2,26.2 0 0 0 -11,5q-3.905,-1.592 -8,-0.5q3.845,1.144 0,1.5q-2.408,-1.395 -4.5,0a6.54,6.54 0 0 1 -3,-3q-0.297,2.822 -1.5,5l0,-17q1.716,2.4 3.5,5a37,37 0 0 1 4.5,-2q1.794,0.519 0,1.5q3.893,0.339 7.5,1.5q4.792,-2.027 5.5,-7a12,12 0 0 0 6,-1q2,1.5 0,3l-3,1.5q4.539,2.858 9,-0.5q-0.21,-2.633 1.5,-5q1.948,0.699 4.5,0a4.93,4.93 0 0 1 0.5,-3q1.005,1.128 2.5,1" fill="#40a7c7"/>
  <path id="svg_52" d="m126.5,107.5a34.5,34.5 0 0 1 -6,8a514,514 0 0 0 -4,3a44,44 0 0 0 -2,-1q-2.828,-2.33 -3,-6q3.604,-0.16 5.5,3l7.5,-7.5q1.405,-1.038 2,0.5" fill="#edf3f5"/>
  <path id="svg_53" d="m126.5,107.5a31,31 0 0 0 3.5,3a4.93,4.93 0 0 0 0.5,-3q1.46,3.672 1,8a38,38 0 0 0 -7.5,3q-2.593,-0.711 -3.5,-3a34.5,34.5 0 0 0 6,-8" fill="#3fa6c7"/>
  <path id="svg_54" d="m107.5,108.5a8.4,8.4 0 0 0 0.5,4l1,-2q1.006,1.128 2.5,1q0.172,3.67 3,6q-1.351,3.34 -5,3q-2.347,-3.014 -3,-7q-0.426,-2.872 1,-5" fill="#45a8c8"/>
  <path id="svg_55" d="m54.5,117.5q2.682,8.826 -5,4q-0.866,-6.652 5,-4" fill="#eaf1f4"/>
  <path id="svg_56" d="m189.5,126.5l0,12q-1.185,-1.663 -1.5,-4l-1.5,1.5q-8.812,2.692 -16.5,-1.5a236,236 0 0 0 -11.5,4q-1.684,-1.566 -4,-2q-5.286,2.382 -11,1.5a9.5,9.5 0 0 1 -1.5,-2.5a39.4,39.4 0 0 1 -8.5,1l-1,-2q-7.75,1.7 -16,4.5q-1.128,1.006 -1,2.5q-3.777,-1.79 0,-3.5l-2,-1l8,-1q-8.428,-2.514 -16,2.5q-1.329,1.237 -1,3a9.1,9.1 0 0 0 -5,1q-1.532,-0.752 -0.5,-2a11.3,11.3 0 0 1 3.5,-1.5l-2.5,-0.5q-8.363,4.664 -18,7a40,40 0 0 1 -6,-2a3.65,3.65 0 0 1 -1.5,1q-6.242,-5.466 -15,-10a148,148 0 0 1 -11.5,3a4.45,4.45 0 0 0 -1.5,-2q-5.635,0.603 -11.5,3q-6.948,-4.202 -13,1a18,18 0 0 0 -3.5,-2a96,96 0 0 1 -11.5,2q-2.487,-0.263 -4,-2q-0.315,2.337 -1.5,4l0,-11q1.203,-2.178 1.5,-5a6.54,6.54 0 0 0 3,3q2.092,-1.395 4.5,0q3.845,-0.356 0,-1.5q4.095,-1.092 8,0.5a26.2,26.2 0 0 1 11,-5q9.08,0.168 18,0q0.873,4.626 5.5,6l6,-4q4.869,10.296 14.5,16q2.709,-2.038 4.5,1q4.95,0.001 10.5,-0.5q2.341,-0.477 3.5,-2.5q1.524,1.701 2,-1l1,1q0.725,-1.422 0.5,-3q10.258,-2.948 20.5,-2q13.404,0.3 21.5,-10a488,488 0 0 1 17.5,-3q3.6,0.816 7,2q4.185,-1.797 8,-2q7.346,3.837 16.5,2.5l1.5,-1.5q0.297,2.823 1.5,5" fill="#48b1cc"/>
  <path id="svg_57" d="m48.5,108.5q6.767,2.995 11.5,9q10.77,33.01 39.5,13.5l23,-1q15.227,-4.49 15,-20.5l1,0l0,9q-0.442,1.907 -1,5q-8.096,10.3 -21.5,10q-10.242,-0.948 -20.5,2a4.93,4.93 0 0 1 -0.5,3l-1,-1q-0.476,2.701 -2,1q-1.159,2.023 -3.5,2.5q-5.55,0.501 -10.5,0.5q-1.791,-3.038 -4.5,-1q-9.631,-5.704 -14.5,-16l-6,4q-4.627,-1.374 -5.5,-6l2,-1q7.682,4.826 5,-4q-1.025,-2.514 -4,-2q0.329,-1.762 -1,-3q-4.022,-0.648 -6,-4q2.037,-0.483 5,0" fill="#3f9db4"/>
  <path id="svg_58" d="m120.5,115.5q0.907,2.289 3.5,3a38,38 0 0 1 7.5,-3q-1.554,4.351 -5,7.5q-9.656,5.613 -17,-2.5q3.649,0.34 5,-3q0.975,0.456 2,1a514,514 0 0 1 4,-3" fill="#52c0d2"/>
  <path id="svg_59" d="m115.5,141.5q5.464,-1.487 11,-3q10.249,0.255 21.5,2q6.137,-1.659 13,0a196,196 0 0 1 7.5,-2a8.9,8.9 0 0 0 4,3a915,915 0 0 0 15.5,-2q0.627,3.432 -2,6a35.6,35.6 0 0 0 -6,3q-3.58,-0.644 -8,-2a7379,7379 0 0 1 -38,3q-3.912,-2.522 -8,-2l-5,2q-7.562,-2.472 -15.5,1q-4.565,-3.058 -9.5,-1q-2.332,-3.64 -3.5,0a5.73,5.73 0 0 0 -1,3q-1.487,-0.257 -2,1a11.74,11.74 0 0 0 -5,-3q-3.672,-1.46 -8,-1a637,637 0 0 0 -24.5,0q-2.03,-1.806 -5,-2a86,86 0 0 0 -7.5,1q-6.05,-2.97 -12.5,0a645,645 0 0 0 -22,0q-2.09,-3.937 -3.5,0l0,-7q1.185,-1.663 1.5,-4q1.513,1.737 4,2a96,96 0 0 0 11.5,-2a18,18 0 0 1 3.5,2q6.052,-5.202 13,-1q5.865,-2.397 11.5,-3a4.45,4.45 0 0 1 1.5,2a148,148 0 0 0 11.5,-3q8.758,4.534 15,10a3.65,3.65 0 0 0 1.5,-1a40,40 0 0 0 6,2q9.637,-2.336 18,-7l2.5,0.5a11.3,11.3 0 0 0 -3.5,1.5q-1.032,1.248 0.5,2a9.1,9.1 0 0 1 5,-1q-0.329,-1.763 1,-3q7.572,-5.014 16,-2.5l-8,1l2,1q-3.777,1.71 0,3.5" fill="#4cbad2"/>
  <path id="svg_60" d="m189.5,138.5l0,16q-1.185,-1.663 -1.5,-4q-2.229,3.117 -6,4a69,69 0 0 1 -16.5,-4q-4.244,0.072 -7,3q2.13,3.94 2,9.5q0.378,10.617 -10,8q-4.409,-4.603 -7.5,0.5a11.4,11.4 0 0 1 -2.5,-2q0.186,-0.91 1,-1l3,0a61,61 0 0 0 -0.5,-11q-3.55,-5.148 -8,-1q-1.065,-2.21 -3.5,-2l0,14l3,0q-0.247,-5.025 0.5,-10q2.424,-1.951 4.5,0a41,41 0 0 1 -0.5,9q-0.62,-8.12 -3.5,-1.5q2.138,2.57 -1,4l-5,0.5q-3.21,-0.084 -5,-2l4,0l0,-14q-2.398,-0.401 -4,1l-3,4q-1.327,-6.426 -8,-4.5q-2.355,2.095 -4,4.5q-0.5,-1.5 -2,-2q-5.431,-5.978 -11,0a38.4,38.4 0 0 1 -1.5,-7q-0.417,1.373 -1.5,2q0.322,-2.519 -2,-3q1.168,-3.64 3.5,0q4.935,-2.058 9.5,1q7.938,-3.472 15.5,-1l5,-2q4.088,-0.522 8,2a7379,7379 0 0 0 38,-3q4.42,1.356 8,2a35.6,35.6 0 0 1 6,-3q2.627,-2.568 2,-6a915,915 0 0 1 -15.5,2a8.9,8.9 0 0 1 -4,-3a196,196 0 0 0 -7.5,2q-6.863,-1.659 -13,0q-11.251,-1.745 -21.5,-2a9150,9150 0 0 1 -11,3q-0.128,-1.494 1,-2.5q8.25,-2.8 16,-4.5l1,2a39.4,39.4 0 0 0 8.5,-1q0.561,1.375 1.5,2.5q5.714,0.882 11,-1.5q2.316,0.434 4,2a236,236 0 0 1 11.5,-4q7.688,4.192 16.5,1.5l1.5,-1.5q0.315,2.337 1.5,4" fill="#4fbdcf"/>
  <path id="svg_63" d="m92.5,149.5q2.322,0.481 2,3l-3,0a5.73,5.73 0 0 1 1,-3" fill="#eff4f5"/>
  <path id="svg_65" d="m48.5,168.5l3,0q6.237,2.594 13,1.5q0.835,-0.575 1,-1.5a72.4,72.4 0 0 0 -0.5,-12q-1.492,-0.85 -2.5,-2a6.85,6.85 0 0 1 4,1q2.123,-5.189 7,-3q1,8.228 2,16q2.975,0.514 4,-2q1.15,-1.008 2,-2.5l9,-1.5q-0.426,2.872 1,5l0,1q0.549,1.792 2.5,2q10.95,-0.29 22,0q5.165,-0.472 9.5,-3l0,1q1.79,1.916 5,2l5,-0.5q3.138,-1.43 1,-4q2.88,-6.62 3.5,1.5q0.747,-4.473 0.5,-9q1.469,4.687 1,10q-0.814,0.09 -1,1a11.4,11.4 0 0 0 2.5,2q3.091,-5.103 7.5,-0.5q10.378,2.617 10,-8q0.13,-5.56 -2,-9.5q2.756,-2.928 7,-3a69,69 0 0 0 16.5,4q3.771,-0.883 6,-4q0.315,2.337 1.5,4q-1.63,11.433 -9,20q-3.451,1.818 -7,0a7.25,7.25 0 0 0 -2.5,2q-14.01,-1.203 -27.5,0q-16.83,-1.033 -31.5,-1q-3.475,1.494 -7,3q-5.167,-3.93 -10.5,0q-3.35,-0.546 -5.5,-3q-4.155,0.719 -9,2q-3.737,-0.498 -6.5,-3q-6.07,2.687 -11.5,0q-3.525,-0.443 -7.5,1a7.3,7.3 0 0 1 -3,-2q-1.996,0.999 -4.5,0q-2.064,0.276 -2.5,2l-5,0a4.93,4.93 0 0 1 -0.5,3a7.3,7.3 0 0 0 -2,-3a15.1,15.1 0 0 0 -6,3q-1.524,-1.701 -2,1l-1,-1q-2.334,4.199 -6.5,3q-1.195,0.686 -1,2q-13.34,-8.65 -18,-24q1.356,-1.064 1,-3q5.496,0.445 9.5,-3q2.72,0.14 5.5,1a39.2,39.2 0 0 0 10,-4a3.65,3.65 0 0 1 1.5,1a382,382 0 0 1 0.5,19.5q4.36,1.281 7,-2.5q1.782,2.01 4.5,2a29.3,29.3 0 0 1 6.5,-2" fill="#56cbd8"/>
  <path id="svg_80" d="m143.5,176.5q-2.799,-0.194 -6,2a35,35 0 0 1 -4.5,-1l-2,2q-2.097,-0.826 -4,-1l-2,2q-2.724,-2.912 -6,-2q-9.12,4.586 -19,2q-3.34,4.389 -7,1q-2.085,3.322 -5,0q-1,4 -2,0q-1.5,4 -3,0q-1.112,1.712 -2.5,0l-2,2q-1.034,-2.746 -3.5,-6q-1.037,3.587 -3,0q-1.565,1.684 -2,4q-1.112,-1.712 -2.5,0q-5.229,-2.129 -8,-5a4.45,4.45 0 0 0 -1.5,2q-5.3,-2.862 -11,-1q-0.532,-1.514 -2.5,-2q0.436,-1.724 2.5,-2q2.504,0.999 4.5,0a7.3,7.3 0 0 0 3,2q3.975,-1.443 7.5,-1q5.43,2.687 11.5,0q2.763,2.502 6.5,3q4.845,-1.281 9,-2q2.15,2.454 5.5,3q5.333,-3.93 10.5,0q3.525,-1.506 7,-3q14.67,-0.033 31.5,1" fill="#5dd4da"/>
  <path id="svg_81" d="m180.5,174.5q-9.244,12.63 -25,14.5a3659,3659 0 0 1 -121,0q-7.825,-0.855 -14,-5.5q-0.195,-1.314 1,-2q4.166,1.199 6.5,-3l1,1q0.476,-2.701 2,-1a15.1,15.1 0 0 1 6,-3a7.3,7.3 0 0 1 2,3q0.725,-1.422 0.5,-3l5,0q1.968,0.486 2.5,2q5.7,-1.862 11,1a4.45,4.45 0 0 1 1.5,-2q2.771,2.871 8,5q1.388,-1.712 2.5,0q0.434,-2.316 2,-4q1.963,3.587 3,0q2.466,3.254 3.5,6l2,-2q1.388,1.712 2.5,0q1.5,4 3,0q1,4 2,0q2.915,3.322 5,0q3.66,3.389 7,-1q9.88,2.586 19,-2q3.276,-0.912 6,2l2,-2q1.903,0.174 4,1l2,-2q2.3,0.666 4.5,1q3.201,-2.194 6,-2q13.49,-1.203 27.5,0a7.25,7.25 0 0 1 2.5,-2q3.549,1.818 7,0" fill="#5dd3e0"/>
  <path d="m34.33829,152.14848c0,0 0.4631,-0.06795 1.14937,0c1.16642,0.11549 1.5686,0.5715 2.06886,0.68961c0.22372,0.05281 0.22987,0 0.22987,0c-0.22987,0 -0.45975,0 -0.91949,0c-0.45975,0 -0.68962,0 -0.91949,0l0,0" id="svg_84" fill="none"/>
  <rect stroke="null" id="svg_85" height="26.43545" width="151.02691" y="145.25227" x="9.9717" fill="#56cbd8"/>
  <rect stroke="null" id="svg_86" height="13.56254" width="32.41217" y="145.25227" x="1.92613" fill="#56cbd8"/>
 </g>
</svg>